<?xml version="1.0" encoding="utf-8"?>
<!-- Generator: Adobe Illustrator 16.0.0, SVG Export Plug-In . SVG Version: 6.00 Build 0)  -->
<!DOCTYPE svg PUBLIC "-//W3C//DTD SVG 1.1//EN" "http://www.w3.org/Graphics/SVG/1.1/DTD/svg11.dtd">
<svg version="1.1" id="Layer_1" xmlns="http://www.w3.org/2000/svg" xmlns:xlink="http://www.w3.org/1999/xlink" x="0px" y="0px"
	 width="189.666px" height="42.496px" viewBox="0 0 189.666 42.496" enable-background="new 0 0 189.666 42.496"
	 xml:space="preserve">
<path fill="#8F8F8F" d="M62.073,22.599h7.945L66.09,11.975L62.073,22.599L62.073,22.599z M71.22,25.935H60.835l-2.923,7.64h-3.695
	L64.369,7.748h3.444l10.115,25.827h-3.874L71.22,25.935L71.22,25.935z M97.836,27.405h4.304c-2.176,4.448-5.99,6.672-11.443,6.672
	c-3.707,0-6.821-1.327-9.344-3.982c-2.523-2.654-3.784-5.847-3.784-9.577c0-3.611,1.297-6.726,3.892-9.344
	c2.595-2.619,5.698-3.928,9.309-3.928c2.559,0,4.819,0.574,6.78,1.722c2.057,1.196,3.587,2.929,4.591,5.201h-4.089
	c-1.746-2.343-4.197-3.515-7.354-3.515c-2.583,0-4.818,0.992-6.708,2.977c-1.889,1.985-2.833,4.281-2.833,6.887
	c0,2.702,0.909,5.058,2.726,7.066c1.865,2.081,4.137,3.121,6.815,3.121C93.854,30.706,96.234,29.605,97.836,27.405L97.836,27.405z
	 M112.358,10.905v22.67h-3.408v-22.67h-5.201V7.748h13.846v3.157H112.358L112.358,10.905z M123.693,7.748v25.827h-3.372V7.748
	H123.693L123.693,7.748z M131.692,10.905v22.67h-3.408V7.748h7.39c6.29,0,9.434,2.756,9.434,8.274c0,2.128-0.735,3.904-2.2,5.321
	c-1.465,1.423-3.259,2.134-5.381,2.134l7.401,10.097h-4.269l-8.752-12.231c3.396,0,5.583-0.156,6.564-0.467
	c2.224-0.693,3.336-2.332,3.336-4.914c0-3.372-2.356-5.058-7.067-5.058H131.692L131.692,10.905z M131.692,21.056l0.215,0.287h-0.215
	V21.056L131.692,21.056z M161.967,30.311v3.264h-13.272V7.748h13.272v3.121h-9.829v8.214h9.829v3.013h-9.829v8.215H161.967
	L161.967,30.311z M185.361,27.405h4.304c-2.176,4.448-5.99,6.672-11.443,6.672c-3.707,0-6.821-1.327-9.344-3.982
	c-2.523-2.654-3.785-5.847-3.785-9.577c0-3.611,1.298-6.726,3.892-9.344c2.595-2.619,5.698-3.928,9.309-3.928
	c2.559,0,4.819,0.574,6.78,1.722c2.057,1.196,3.587,2.929,4.591,5.201h-4.089c-1.746-2.343-4.197-3.515-7.354-3.515
	c-2.583,0-4.819,0.992-6.708,2.977s-2.833,4.281-2.833,6.887c0,2.702,0.909,5.058,2.726,7.066c1.866,2.081,4.137,3.121,6.815,3.121
	C181.379,30.706,183.759,29.605,185.361,27.405L185.361,27.405z"/>
<path fill-rule="evenodd" clip-rule="evenodd" fill="#B2D237" d="M24.215,23.748c-1.528-1.584-0.492-3.818-1.121-4.589
	c-0.687-0.831-2.84-0.222-3.931,1.497c-5.571,8.802,12.052,20.128,22.686,6.556C53.555,12.271,27.045-9.17,8,4.22
	c-6.77,4.429-8.604,9.216-7.836,9.912c0.369,0.326,1.456-0.481,3.521-2.225c20.097-16.968,36.667,1.607,28.349,10.934
	C29.925,25.199,26.035,25.611,24.215,23.748L24.215,23.748z"/>
<path fill-rule="evenodd" clip-rule="evenodd" fill="#FCC613" d="M43.179,35.604c-0.974,0.069-3.33,1.059-7.216,1.578
	C7.492,40.985,12.436,8.697,27.986,15.421c1.725,0.755,2.813,1.983,3.392,1.606c0.679-0.447,0.501-2.287-0.619-3.953
	c-1.367-2.028-4.31-3.843-7.061-4.042C11.173,8.121,3.312,16.07,2.212,23.465C-2.66,56.229,53.041,37.065,43.179,35.604
	L43.179,35.604z"/>
</svg>
